<svg id="Layer_1" data-name="Layer 1" xmlns="http://www.w3.org/2000/svg" xmlns:xlink="http://www.w3.org/1999/xlink" viewBox="0 0 4372.96 1155.35"><defs><style>.cls-1{fill:url(#radial-gradient);}.cls-2,.cls-3{fill:none;}.cls-2{stroke:#5e6047;stroke-linecap:round;stroke-linejoin:round;stroke-width:20px;}.cls-3{stroke:#fff;stroke-linejoin:bevel;stroke-width:10px;}.cls-4{fill:#fff;}.cls-5{fill:#5e6047;}.cls-6{fill:#4a4e36;}</style><radialGradient id="radial-gradient" cx="438.93" cy="527.15" r="504.05" gradientTransform="matrix(1, 0, 0, -1, 0, 1154.39)" gradientUnits="userSpaceOnUse"><stop offset="0" stop-color="#c4d82e"/><stop offset="1" stop-color="#8eac3d"/></radialGradient></defs><g id="Layer_2" data-name="Layer 2"><g id="Layer_1-2" data-name="Layer 1-2"><g id="Layer_2-2" data-name="Layer 2-2"><g id="Layer_1-2-3" data-name="Layer 1-2-3"><path class="cls-1" d="M417.37,669.74v442.45c0,20.14-13,33.16-33.08,33.16h-97c-19.83,0-32.93-13.07-32.94-32.81V994.19c0-13.22-5.6-23.36-17.7-29.48-65.76-33.27-119.54-80.17-159.94-141.84Q6.08,715.1,10.23,586.08A406.59,406.59,0,0,1,325.78,202.87c19.56-4.49,39.69-6.7,59.65-9.21,15.48-1.94,31.31,13,31.92,29.14.07,1.66,0,3.33,0,5Z" transform="translate(0 0)"/><path class="cls-1" d="M460.37,669.14V226.7c0-16.92,9.71-29.7,26.12-32.92,5.21-1,10.93.19,16.38.75C673.53,212,816.49,337,856.46,503.75c43.7,182.3-41,369.14-207,456.61-7,3.68-14.7,6.34-19.48,13.43-4.12,6.11-6.61,12.54-6.6,20q.09,59.43,0,118.85c0,19.48-13.14,32.69-32.54,32.71H493.36c-19.84,0-33-13.06-33-32.77Z" transform="translate(0 0)"/></g><g id="Layer_1-2-4" data-name="Layer 1-2-4"><path class="cls-2" d="M417.37,669.74v442.45c0,20.14-13,33.16-33.08,33.16h-97c-19.83,0-32.93-13.07-32.94-32.81V994.19c0-13.22-5.6-23.36-17.7-29.48-65.76-33.27-119.54-80.17-159.94-141.84Q6.08,715.1,10.23,586.08A406.59,406.59,0,0,1,325.78,202.87c19.56-4.49,39.69-6.7,59.65-9.21,15.48-1.94,31.31,13,31.92,29.14.07,1.66,0,3.33,0,5Z" transform="translate(0 0)"/><path class="cls-2" d="M460.37,669.14V226.7c0-16.92,9.71-29.7,26.12-32.92,5.21-1,10.93.19,16.38.75C673.53,212,816.49,337,856.46,503.75c43.7,182.3-41,369.14-207,456.61-7,3.68-14.7,6.34-19.48,13.43-4.12,6.11-6.61,12.54-6.6,20q.09,59.43,0,118.85c0,19.48-13.14,32.69-32.54,32.71H493.36c-19.84,0-33-13.06-33-32.77Z" transform="translate(0 0)"/></g><g id="Layer_1-2-5" data-name="Layer 1-2-5"><path class="cls-3" d="M287.29,1139.68c-16.81,0-27.26-10.4-27.27-27.14V994.19c0-15.71-7.2-27.65-20.81-34.54-65.62-33.2-118.7-80.26-157.76-139.88C35.22,749.24,13.18,670.68,15.9,586.26,21.76,404.42,149.71,249,327.05,208.4c16.92-3.89,34.69-6.09,51.87-8.21l7.22-.9a14.82,14.82,0,0,1,2-.13c11.41,0,23.05,11.82,23.51,23.86v889.14c0,17-10.5,27.49-27.41,27.49Z" transform="translate(0 0)"/><path class="cls-3" d="M493.36,1139.68c-16.6,0-27.33-10.63-27.33-27.1V226.7c0-14.48,8-24.71,21.54-27.35a18,18,0,0,1,3.36-.28,62.51,62.51,0,0,1,7.61.66c1.25.16,2.51.32,3.74.44A396.45,396.45,0,0,1,622.21,232a404.56,404.56,0,0,1,181.3,158.56A396,396,0,0,1,851,505.07,401.92,401.92,0,0,1,646.84,955.35c-1.27.66-2.57,1.3-3.86,1.93-6.07,3-13,6.33-17.68,13.34-5.1,7.57-7.58,15.15-7.57,23.18.06,39.43.06,79.41,0,118.83,0,16.42-10.55,27-26.87,27Z" transform="translate(0 0)"/></g></g><path class="cls-4" d="M390.43,269.45h16.95V607.73c-4.41.15-6,3.35-7.61,6.47-2,4-3.57,8.2-5.74,12.09a7.77,7.77,0,0,0-.95,6.53c1.95,6.87,2.45,13.7-2.46,19.62,1.31,3.35,1.81,7,3.82,9.3,3.91,4.52,7.75,8.94,10.76,14.19a12.89,12.89,0,0,1,2.2,6.79V928.81c0,1.44-.17,2.88-.28,4.62-2,0-3.6.13-5.22,0-14.34-1.34-28.79-2-43-4.27a304.39,304.39,0,0,1-80.38-24.38c-10.38-4.78-20.45-10.24-30.52-15.6-4.61-2.45-6.81-7.23-4.39-10s4.14-5.61,6.41-8.23c3.13-3.64,3.31-3.49-.24-6.91-2.68-2.58-2.3-5.45,1-7.26,1-.54,2.62-.89,2.79-1.61.89-3.82,3.22-7.52,1.24-11.72-.43-.91-.06-2.2-.06-3.76,1.49.52,2.1.72,2.7.94,3.74,1.39,4.14,1.15,4.75-2.76.26-1.72.59-3.44.82-4.77,3.42-.55,6.21-.81,8.92-1.46,5.19-1.24,6.92-5.18,4.56-10-.92-1.85-1.77-3.73-2.93-6.19,2.18.5,3.91.81,5.59,1.28,6,1.72,6.86,1.33,9.6-4.35a23,23,0,0,1,3-5.11c5.1-5.94,9.55-12.09,9.4-20.44a4.18,4.18,0,0,1,.91-2.8c4.32-4.25,8.91-8.28,15.15-9.25,2.81-.43,4.59-1.43,5.46-4.16a31.11,31.11,0,0,1,1.64-3.57c2.92-6.3,5.47-12.67,4.45-19.87a7,7,0,0,1,2.09-6.23,48.09,48.09,0,0,0,7.64-10.39c1.44-2.78,1.71-6.26,2.1-9.48.3-2.5-1.28-3.75-3.77-4.37-2-.48-4.37-1.23-5.47-2.69-4.43-5.92-11-3.61-16.58-4.82a5.59,5.59,0,0,0-1.63.3c0-4.38-3.72-4.64-6.34-6.08-4.52-2.49-4.59,3-7,4.19-7.67-3.31-7.91-4.49-2.42-11.56a18.42,18.42,0,0,1-1.79-3.51c-1.82-6.67-6.33-9.57-13-10.11a15.39,15.39,0,0,1-6.94-2.16c-2.68-1.74-4.78-4.34-7.25-6.43s-5.16-3.49-7.13-5.76c-1.47-1.69-2.77-1.89-4.2-.93-4,2.7-8.39.54-11-1-3.42-2.07-5.8-1.61-9-.86v6.29c-3.5-3-1.59-6.33-.81-9.67-3.13,1.21-5.92,2.11-8.55,3.37a10.58,10.58,0,0,0-3.61,3,69.34,69.34,0,0,0-3.71,6.13c-5.27-4-5.26-4-11.12-2.16-.85.26-2.22.41-2.73-.07-3.09-2.82-7-5.26-5.75-10.54a31.28,31.28,0,0,0,.33-5.47c.22-4.89-1-6.29-5.94-6.26-1.81,0-3.61.46-5.42.52A25,25,0,0,1,186,650c1.85-6.33,3.53-12.06,5.41-18.51-2.4-.16-4.41-.76-6.15-.31-4.88,1.25-3.53,7.17-6.91,9.7a23,23,0,0,0-5,.86c-2.6,1-4.6,0-6.24-1.6-5.08-5-7.62-11.11-6.69-18.41a55,55,0,0,0,.65-7.36c0-4,.57-7.28,5.17-8.42,1-.25,1.65-1.62,2.64-2.11,1.54-.75,3.27-1.75,4.84-1.63,2.78.22,5.49,1.21,8.24,1.83.27.06.61-.13,1.1-.26l.77-3.15c5.64-2.55,10.62,2,16,.54.5-.13,1.71,1,2,1.83a20.79,20.79,0,0,1,1.15,4.79c.61,4.29,3.31,7.21,6.72,11.18.34-2.63.93-4.25.66-5.7a45.43,45.43,0,0,0-2.43-8.56c-2.22-5.49-1.25-10,3.4-13.72,1.29-1,2.77-1.81,4.1-2.8,3.33-2.49,7.28-4.58,7-9.68-.12-2.09-.31-4.17-.43-6.25,0-.17.3-.37.53-.63.3.82.57,1.55,1,2.74l5.53-12.68,9.44-3.2c-1-5.18.66-9.19,4.72-10.11a10.49,10.49,0,0,0,5.61-3.06c1.45-1.43,4.32-1.43,6.77-2.13.91,2.54-2.16,2-3,3.22-1.27,1.78-1.55,3.16.13,4.42L264.39,544c-2.92-1.29-5.95-1.87-7.83-3.66s-2.28-4.61-3.32-6.93l4-3.56c-5.69-3.33-9.91.71-14.54,1.83,1.77-1.92,4.11-3.12,5.39-5,1.74-2.6,4-3.32,6.7-3.43a22.34,22.34,0,0,1,6,.22c4.36,1,8.12.74,11.22-3,.74-.9,2.37-1.06,3.59-1.57,5-2.07,5.6-3.61,3.15-8.72-.42-.86-.91-1.69-1.23-2.26l-9,2.57-.35-.95,7.48-3.86c-3-1.41-5.38-2.13-7.27-3.51s-3.34-3.43-5.3-5.51c1.11-2.21.7-4.52-1.64-6.46a3.84,3.84,0,0,1-1.42-2.47c0-3.88-3.18-5.46-5.56-8.56-1,2-1.36,3.6-2.37,4.69-1.49,1.63-3.83,4.3-5.05,3.94-2.15-.62-3.88-3.08-5.48-5-.63-.77-.32-2.26-.66-3.35s-.81-2.8-1.47-2.93c-3.66-.68-5-4.1-7.68-5.93a9,9,0,0,0-3.44-1.53,65.88,65.88,0,0,0-7.15-.61c-1.67-.09-3.35,0-4.84,0,0,3.54-1,6.77.2,8.72,2.35,3.88,1.28,6.41-1.73,8.66,7.4,11.29,7.26,12.75-1.67,20.16,2.33,7.91,3.65,11.63-2.42,14.2-3.88-2.94-6.89-6.26-6.65-11.83.21-4.81-.37-5-5-5.4a17.35,17.35,0,0,1-5.49-1.7c-3.3-1.53-6.55-3.19-9.72-5-2.74-1.54-5.39-3-8.5-1.13-1.72-3.64-.56-9-7.56-8.25.9-4.36.9-8.44,2.61-11.56,2.22-4,3.49-9.54,9.76-10.59L175.33,462c6,.2,11.29-.81,14.91-6-1.77-3.16-7-.53-7.55-5.23,2.45.78,4.87,2.36,6.86,1.92,1.54-.34,2.54-3.18,3.9-5.07,5.4,2.47,10.06.9,13.36-5.14-4.06-2.45-2-5.45-.36-8.18-5.06-4.28-8.92-5.44-10.84-3,.33,1.11.73,2.44,1.16,3.84-.85.56-1.81.86-2.15,1.49-.77,1.44-1.14,3.09-1.84,4.59-1.3,2.8-3.81,3.14-5.19.46-.79-1.54-.37-3.71-.5-5.6l.88-.33-3.65-3.1c-1.19,1.91-2.06,3.3-2.77,4.42L175,429.22l1-1.75c-1.17-2.4-2.13-4.24-3-6.13-1.52-3.37-3.59-3.17-6.76-1.58-3.45,1.72-.82,4.43-2.14,6.37-1.09,1.59,0,2.84,1.83,3.12,2.85.42,4.34,1.91,4.42,4.91,0,.72,1,1.41,1.47,2.08l-7.2,6.76-.81-4.62c-3.37-.74-3.36-.73-6.06,1.93a2.07,2.07,0,0,1-1.21.69c-7.75.18-15.83,1.39-21.22-6.65-2.17,1.4-5.49-.14-7.15,3.89l6.64-1.08c-2.47,1.94-5.63,3-3.66,8.28l-6.61-5.89c.89-6,7-4.82,9.6-8,4.52,1.18,8.07,6.08,13.31,2.05l-2.09-3.48,4.88-1.48c-2.58-1.41-4.69-2.39-6.61-3.65a8.78,8.78,0,0,1-3-12.06c.17-.26.34-.52.53-.77,2.19-3.13,4.66-6.08,6.69-9.3,2.32-3.71,5-6.6,9.86-5.71,1.52-4.73.84-10.08,5.57-13,1,3.92,4.63,5.63,8.79,4.13,1.14,2.13,2.81,4.14,3.3,6.42.7,3.27,2.24,6.05,5.21,5.55,3.27-.57,6.24.25,9.35.37,5,.21,10-1.47,15,0a6.38,6.38,0,0,0,2.46-.21c1.84-.23,3.51-.4,3.37-3.1-.13-2.48-.84-4.21-3.51-4A50.8,50.8,0,0,0,197,394.57c-6.06,1.71-11.64,1.18-16.86-2.31-.51-.33-.55-1.36-.8-2.07-1.32-3.94-4.51-1.92-7.36-1.81-1.95-3.5-5.17-4.29-8.83-4.14,1.29-2.83,3.37-3.79,6.42-3,.64.17,1.52-.56,3.31-1.3l-5.11-1.08c1.21-1.43,2.1-2.6,3.12-3.65,1.84-1.92,3.57-3.76,5.55.12.38.74,2.88.49,4.39.48.44,0,1.13-1.26,1.26-1.18,3.73,2.19,3.58-1.4,4.3-3.09,4.4,1.64,5.71-2.83,8.72-4l-5.59-1.7-1.64-4.39-2.1,1.73c-.31-3.62,3.54-6.29,7-5.2,6.72,2.11,10.93,2,17.36-.5.28-.11.73.21,1.1.33l.19,1L202,361.76l2.3,3.05c-2.47-.78-4.32-2.42-6.47-3.31-2.62-1.1-4.79,0-6.21,2.56a11.82,11.82,0,0,1,2.63,1.33c1.29,1.12,3.19,2.32,3.41,3.71.38,2.45-2.31,2.43-3.93,2.82-2.32.56-3.94,1.5-4.11,4.29,4.44-.69,5.23,3.24,8.32,6.18-4.25-.75-6.54-4.94-10.63-2.42l2.9,3.62c-2.6,1.24-6.28.17-6.71,3.78,1.82.34,3.38.52,4.88.92a17.42,17.42,0,0,0,9.2.35,16.84,16.84,0,0,1,9.2.48c3.94,1.38,6.44-.11,9.67-2.68l-3.9-1.57,4.93-6.37c2.19.36,4.36-.76,6.17-3.44s.31-4.73.12-7.51c2.17-.59,4.58-1.9,6.85-1.69a6,6,0,0,0,5.94-2.67,22.29,22.29,0,0,1,11.79-7.8,37.11,37.11,0,0,0,4.8-2.2l-.33-.64-5.38-.63c5.41-3.7,12.33-1.29,16.62-7-5.51.08-9-7.15-15-2.87a1.51,1.51,0,0,1-1.38-.23c-3.24-2.67-7.21-2.13-10.88-2.15-7.4-.06-14.81.41-22.22.65h-5.35c2.22-1.93,3.37-3.05,4.64-4,48.51-36.26,102.63-58.36,162.94-64.9C381.38,270.89,385.9,270.1,390.43,269.45ZM281,418c2.85,0,5.67-.81,7.47.21,2.22,1.25,3.58,4,5.31,6.14l-.46.86-7.1-1-.2.93,9.55,3.25c-1.93,4.93-2.25,4.64-6,8.68-1.76,1.92-5.88,4.22-2.2,8.1.21.22-.17.92-.1,1.37a20.17,20.17,0,0,0,.91,4.55c.93,2.24,2.21,4.34,3.36,6.53l2.22-.13c.25,2.39-.05,4.65.79,6.34a42.78,42.78,0,0,0,6,9c1.15,1.31,2.9,3.4,5.57,1.65.54-.35,2.3.68,3.16,1.45a10.78,10.78,0,0,1,1.73,2.92h5.81c.65-4,1.17-7.91,2-11.73a5.41,5.41,0,0,1,2-3.11c2-1.34,2.95-2.36,2.08-5.17-1.17-3.78.09-5,3.9-6.72a42.19,42.19,0,0,0,5.58-3.56c.3.32.9,1.26,1.13,1.18,3.59-1.36,7.59-1.64,9.72-6a14.4,14.4,0,0,1,6.58-6.33c3.36-1.49,7.39-1.38,11-2.31a23.26,23.26,0,0,0,6.22-2.76c2.42-1.48,4.62-3.34,7-5.09l-9-2.55,2.09-5.76c2.25-.31,3.55.88,4.65,2.75,1.3,2.22,3.17,3.29,6.56,1.62-.85-1.9-1.34-4-2.58-5.49-1.56-1.89-3.8-3.19-5.61-4.9a19.56,19.56,0,0,1-2.22-3.06l.91-.7,6.09,5.19c4.36-5.35-3-5-3.38-8,.62-.09,1-.27,1.21-.16,3.87,2,5.93,1.21,7.69-2.63.41-.89,1.54-1.45,2.29-2.21a5.44,5.44,0,0,0,.68-1.1l-3.18-2.86c3.95-3.14,4-5.66.83-8.45a15.59,15.59,0,0,1-1.92-2.51,13.71,13.71,0,0,1,3.4-1.29c1.88-.18,4,.52,5.23-2.15-3.15-2.17-3.95-7.16-9.58-6.14,2.16-6.82,7.19-10.82,11.05-15.54s9.58-6.84,14.41-10.38c-4-3.92-3.93-3.55-8-3-5.16.66-10,3.26-15.43,2.46-1.2-.17-2.86,1.22-4,2.26-2.21,2.09-4.17,4.42-6.24,6.66l-.89-.76a72.6,72.6,0,0,0,4.53-6.22c.74-1.24,1.56-3.3,1-4.24-1.14-2-3.14-1.09-4.76,0s-3.29,2.23-5,3.26a32.92,32.92,0,0,1-3.12,1.48l-.42-.61,3.19-5-17.93,1-.09-1.36c2.88-.17,5.78-.24,8.66-.54,5.76-.58,11.52-1.18,17.25-2,1.37-.2,2.6-1.33,3.9-2l-.24-1.12c-5.68,1.24-10.06-1.48-14.48-4.19-1.68-1-3.56-2.35-5.38-2.4-8.24-.23-16.58-1.56-24.68,1A45.69,45.69,0,0,1,314.67,338c-5-.32-9.6.28-12,5.85l4,3a13.59,13.59,0,0,1-6.24-1c-1.7-.61-3.29-1.56-5-2.07-2.86-.85-3.74.65-3.2,3.52a20.05,20.05,0,0,1-3.08-.36,23.72,23.72,0,0,1-3-1.35l-.86,2.32c-4.12-3.47-4.1-3.41-9-1.6-1.52.57-3.25.55-4.77,1.09-3.75,1.32-9.22.2-9.29,6.67-6.61,0-10.5,4.75-15.75,6.89l.34,1.14,6.9,1.78c-1.37,5.63-2.11,6.54-6.77,6.32-5.38-.26-9.51,3.24-14.42,4.28-.19,0-.28.54-.66,1.31,5.34,4.43,11.42,5.4,18.31,3.85-3.33,4.7-9.54,1.49-13.42,5.16,6.22.75,6.48,1,6,4.81,4,2.95,8.26.38,12.2-.08,6.86-.79,13.16-.18,17.74,5.2,3.15,3.7,5.27,8.3,7.79,12.53.55.93.57,2.42,1.33,2.92,2.23,1.48,1.46,3,.51,4.66A32.12,32.12,0,0,0,281,418Zm-72.25-3.33c-.78-7.5-2-8.58-8.26-7.41-4.44.82-5.4,2.17-5.49,6.92,0,1.11-.94,2.21-1.69,3.84-2.94-5-2.21-8.45,1.73-11.26-3.73-1.88-7-1-8.9,1.6s-2.93,6-3.93,9.2c-.21.66,1.19,2.15,2.16,2.76s2.53.73,3.76,1.2c.34.12.5.75.82,1.27l-3.9.88c.57.89.82,1.81,1.29,1.94a92.33,92.33,0,0,0,10.75,2.57c2.77.41,5.65-.11,8.45.13a39.82,39.82,0,0,1,6.09,1.5l2.89-4,7.55,6.47-1.85,2.84a10.64,10.64,0,0,1,12,6.13c1.16,2.59-.14,4.82-4.75,8.14l.9,2.63c-3.53,3.61-9.44-.31-12.14,4.62,1.7,2.35,3.33,2.72,6.08,1.75,4.82-1.71,9.79.72,12.63,5.16A6.35,6.35,0,0,0,237.6,466c4.06,1.62,8.21,3,12.33,4.46l.73-.81-6.72-6.84.34-.4,9.55,4.23c1.84-4.91.85-7.64-2.54-9.64a19.83,19.83,0,0,1-3.83-3.49c-1.67-1.72-2.13-4.44-.63-5.65,2.16-1.76,3.7.79,5.13,2.35,1.58,1.74,3.24,3.4,4.76,5l7.58-8.8c-3.6-1.45-8-1.92-9.94-4.35-2.46-3-6.41-4.13-8.14-7.64l1.72-2.38c-1.06-.49-1.87-.88-3.34-1.58l3.18-1.76c-2.19-1.51-3.66-2.69-5.28-3.62-3.08-1.77-6.08-4-9.43-4.88-2.9-.75-5.19-1.48-6.92-4.07-1.63-2.44-7.62-4.81-9.11-3.3-2.62,2.67-5.5,1.56-8.33,1.81ZM400.37,454c-2.93-3.86-5.8-7.61-11.65-4.88-1.24.58-2.94.08-4.37.37a24.87,24.87,0,0,0-6.09,1.77c-2.77,1.36-2.76,5.59-.19,7.33A16.24,16.24,0,0,0,400.37,454ZM287.54,538.24l1.23-.57c-1.12-3-2.23-6.11-3.23-8.84l-7.8-3.3,2.59-6-1.36-.66c-3.05,5-5.24,10.48-8.16,16.23h14.38Zm-134.1-127-1,1.08-5.14-.4-.42.69,10.83,7.56c1.22-2.07,5.68-.93,5.37-4.95a5,5,0,0,0-4.33-4.64l2.31-4.1c-6.82-.92-7.57-.83-10.69,1.13Zm55.93,50.39-15.14-10.41-2.76,11c2.35-1.4,2,3.58,4.69,2a62,62,0,0,0,5.1-3.65c2.24,1.8,4.74,3.32,8.11,1Zm-29-56.67c-2.82-.57-4.9-1-7-1.41-5-.95-8.14,2.58-6.77,7.51.47,1.7,1,3.38,1.48,5.07l.95.28,2.34-4.73c4.43,1,6.41-2.75,9-6.77Zm20.2,222.18c2.74.63,5.33,1.34,8,1.81a18.53,18.53,0,0,1,9.12,4.36c3.86,3.34,4.13,3.37,9.68,1.69-2-1.13-3.45-2-5-2.82s-2.94-1.43-4.45-2.07a95.68,95.68,0,0,0-10.34-4.21,7.19,7.19,0,0,0-7,1.19Zm30.74,9.25c2.69,5.92,1.08,7.58,11.95,3.87-2.71-4.5-7.39-3.26-12-3.92ZM209,406.39c1.55,5.75,4.07,6.53,12.09,3.81C217.63,406.73,213.59,405.9,209,406.39Zm-48.78,22.87-2.06,2.64-1.56,2c6,2.82,6,2.82,9.3.72Zm3.33-31.86,6.7,3.05c1.38-5,1.38-5-3.2-6.93Zm126.5,33.71.38-1.07a29.8,29.8,0,0,0-3.51-3.23,3.07,3.07,0,0,0-2.67-.28c-.56.35-.7,1.67-.67,2.55a7.72,7.72,0,0,0,.94,2.35Z" transform="translate(0 0)"/><path class="cls-4" d="M80.38,579c.34-2.09.73-4.18,1-6.29.34-2.56.58-5.14.87-7.71l1-.21c3,5.81,5.92,11.63,9,17.39.64,1.2,1.5,2.78,2.6,3.13,7,2.21,8.76,8.39,11.26,14.11a65.89,65.89,0,0,0,3.19,5.92c.93,1.69,1.87,3.38,2.79,5.08.07.12-.1.39,0,.48,2.93,3.92,5.89,7.82,9,11.64-2.13-6.61-4.32-13.2-9.22-18.49a9.26,9.26,0,0,1-2.49-8.06c3.29.45,5.53,1.59,6.18,5.13.9,4.9,5.08,7.52,8,11,1,1.21,1.67,2.73,2.58,4,.72,1,1.62,1.91,2.38,2.9,2.8,3.65,5.61,7.3,8.34,11,.47.64,1,1.73.81,2.29-2.28,5.4,1.93,7.09,5.24,9a82,82,0,0,0,18.17,8.25c1,.29,2.54.61,3.19.1,3.3-2.6,5.73-.78,7.69,1.55,4.18,5,10,5.89,16.21,7.12l7.15,10.92,12.11,8.46,3.48-5.79,1.44-.07c1.48,2.74,3.47,5.32,4.3,8.24s.56,6.21.7,9.34a2.25,2.25,0,0,1-.63,1.31c-2.17,2.62-4.65,5-6.5,7.88a21.88,21.88,0,0,0-3.07,7.48c-.22,1.07,1.41,2.52,2.47,4.24-.44.53-1.28,1.5-2.07,2.49-2,2.54-2.36,5.5-.12,7.71C213,726,214.54,733.51,218,740c1,1.84,1.06,4.14,2,6a16.35,16.35,0,0,0,4.13,5.28,64.93,64.93,0,0,0,8.47,5A9.35,9.35,0,0,1,238,764c1.08,10.17-.38,20.07-2.39,30a53.94,53.94,0,0,0-1.44,11.73c.15,6.42-.25,12.6-3.58,18.27a13,13,0,0,0-1.4,9.58,7.72,7.72,0,0,1-.3,2.7c-.38,2.22-.8,4.44-1.25,7l4.21.3c-1.17,6-2.3,11.78-3.49,17.91l-3.67-1.68c.35,1.76.69,3,.82,4.26a10.94,10.94,0,0,1-.07,3.33c-.5,2.43-1.18,4.83-1.91,7.68-5.21-3.86-10.9-7.8-16.3-12.09Q127.45,799.56,95.81,702.61a287.1,287.1,0,0,1-12.47-56.09c-.71-6.26-1.28-12.53-2-18.78a26.49,26.49,0,0,0-1-3.82Z" transform="translate(0 0)"/><path class="cls-4" d="M168.26,400.45l-6.7-3.05" transform="translate(0 0)"/><path class="cls-4" d="M800.7,436.76v5c-3,10.11-6.25,20.15-8.87,30.35-6.8,26.48-12.18,53.4-23.07,78.66-18.29,42.43-46,76.6-87.28,98.8-25.27,13.58-52.92,17.9-80.82,21.4s-55.75,6.27-82.14,16.88c-7.51,3-12.49-.26-12.18-8.32a58.37,58.37,0,0,1,3.88-19.32c13.23-32.49,35.87-56.66,66.89-72.88,10.87-5.69,22.16-10.57,33.17-16,1.2-.59,1.89-2.21,2.81-3.35-1.45-.24-3.11-1.06-4.33-.63-16.71,5.91-33.92,10.8-49.89,18.3-31.1,14.6-55.31,37.21-69.94,68.68-9.31,20-13.49,41.7-17.42,63.36-.64,3.56-2.79,6.84-4.25,10.25-1.38-.89-1.54-1.2-1.56-1.52-4-55.4,3.88-108.89,25.74-160.14,10.65-24.94,24.89-47.26,46.82-63.95,24.8-18.88,53.36-28.86,83.7-33.53,30.83-4.74,61.91-7.88,92.81-12.18,26.09-3.64,51.45-10,75-22.44C794.94,431.42,796.86,432,800.7,436.76Z" transform="translate(0 0)"/><rect class="cls-5" x="416.58" width="44.71" height="107.15" rx="22.35"/><rect class="cls-5" x="141.25" y="84.95" width="44.71" height="107.15" rx="22.35" transform="translate(-50.03 156.26) rotate(-45)"/><rect class="cls-5" x="658.93" y="116.17" width="107.15" height="44.71" rx="22.35" transform="translate(110.73 544.39) rotate(-45)"/></g></g><path class="cls-6" d="M1315.82,600.69h-64.55V754.16H1147.13V326.65h168.69c104.75,0,157.12,59.07,157.12,137.63C1472.94,534.92,1424.83,600.69,1315.82,600.69Zm-7.91-82.82c41.41,0,59.07-20.7,59.07-53.59s-17.66-53.59-59.07-53.59h-56.64V517.87Z" transform="translate(0 0)"/><path class="cls-6" d="M1631.28,754.16H1527.14V414.34h104.14V471c23.75-35.93,60.9-60.29,106.57-60.29V520.92h-28.62c-49.33,0-78,17.05-78,75.51Z" transform="translate(0 0)"/><path class="cls-6" d="M1942.48,759c-99.88,0-175.4-67-175.4-174.78s77.35-174.78,176.61-174.78c99.88,0,176.61,67,176.61,174.78S2042.35,759,1942.48,759Zm0-90.13c37.14,0,71.86-27.4,71.86-84.65,0-57.85-34.11-84.65-70.65-84.65-37.75,0-70.64,26.8-70.64,84.65C1873.05,641.5,1904.72,668.9,1942.48,668.9Z" transform="translate(0 0)"/><path class="cls-6" d="M2186.07,500.82h-37.76V414.34h37.76V404.6c0-88.91,54.81-132.76,158.34-127.28v88.3c-40.19-2.43-54.2,9.75-54.2,45.68v3h56v86.48h-56V754.16H2186.07Z" transform="translate(0 0)"/><path class="cls-6" d="M2385.21,323c0-31.66,25-56.63,62.11-56.63,36.54,0,61.51,25,61.51,56.63,0,31.06-25,56-61.51,56C2410.18,379,2385.21,354.05,2385.21,323Zm9.74,91.35h104.14V754.16H2395Z" transform="translate(0 0)"/><path class="cls-6" d="M3042.92,569.64c0-44.46-25.58-68.82-65.16-68.82s-65.16,24.36-65.16,68.82V754.16H2809.07V569.64c0-44.46-25.58-68.82-65.17-68.82s-65.16,24.36-65.16,68.82V754.16H2574.6V414.34h104.14V457c20.1-27.4,54.81-46.28,99.27-46.28,51.15,0,92.57,22.53,115.71,63.34,22.53-35.94,65.16-63.34,114.49-63.34,84,0,138.24,53.59,138.24,144.94V754.16H3042.92Z" transform="translate(0 0)"/><path class="cls-6" d="M3348.64,409.47c50.54,0,86.47,23.14,104.74,53V414.34h104.14V754.16H3453.38V706.05c-18.88,29.84-54.81,53-105.35,53-82.83,0-149.21-68.2-149.21-175.39S3265.2,409.47,3348.64,409.47Zm30.45,90.74c-39,0-74.3,29.23-74.3,83.43s35.32,84.65,74.3,84.65c39.58,0,74.29-29.84,74.29-84S3418.67,500.21,3379.09,500.21Z" transform="translate(0 0)"/><path class="cls-6" d="M3649.47,500.82h-41.41V414.34h41.41V331.52h104.14v82.82h68.21v86.48h-68.21V637.23c0,20.1,8.53,28.63,31.67,28.63h37.15v88.3h-53c-70.65,0-120-29.84-120-118.14Z" transform="translate(0 0)"/><path class="cls-6" d="M3870.54,323c0-31.66,25-56.63,62.11-56.63,36.54,0,61.51,25,61.51,56.63,0,31.06-25,56-61.51,56C3895.5,379,3870.54,354.05,3870.54,323Zm9.74,91.35h104.14V754.16H3880.28Z" transform="translate(0 0)"/><path class="cls-6" d="M4209.75,409.47c85.26,0,145.55,46.89,163.21,127.89H4262.12c-8.53-23.75-25.58-39-54.2-39-37.15,0-62.73,29.24-62.73,85.87s25.58,85.87,62.73,85.87c28.62,0,45.07-14,54.2-39H4373C4355.3,709.71,4295,759,4209.75,759c-99.88,0-170.52-67-170.52-174.78C4039.23,477.07,4109.87,409.47,4209.75,409.47Z" transform="translate(0 0)"/><path class="cls-6" d="M1232.07,865.1h-64.9v57.42h58.3v12.76h-58.3v58.3h64.9v12.76h-80.3v-154h80.3Z" transform="translate(0 0)"/><path class="cls-6" d="M1313,884.46c23.76,0,40.7,13,47.3,28.16v-26.4h15.4V1063.1h-15.4V979.94c-6.6,15-23.76,28.16-47.74,28.16-32.78,0-57.2-24.42-57.2-62S1279.81,884.46,1313,884.46Zm2.64,13.42c-25.3,0-44.66,17.6-44.66,48.18,0,30.36,19.36,48.62,44.66,48.62,24.64,0,44.66-18.48,44.66-48.4S1340.31,897.88,1315.67,897.88Z" transform="translate(0 0)"/><path class="cls-6" d="M1515,1006.34h-15.4V985.22c-7.26,15.18-23.1,23.1-40.92,23.1-27.28,0-48.84-16.72-48.84-51.92V886.22H1425v68.42c0,26.62,14.52,40.26,36.52,40.26,22.44,0,38.06-14.08,38.06-43.34V886.22H1515Z" transform="translate(0 0)"/><path class="cls-6" d="M1546.67,852.12a11.22,11.22,0,1,1,22.44,0,11.22,11.22,0,1,1-22.44,0Zm3.52,34.1h15.4v120.12h-15.4Z" transform="translate(0 0)"/><path class="cls-6" d="M1663.48,884.46c32.78,0,57.2,24,57.2,61.6s-24.42,62-57.2,62c-24,0-40.7-13.2-47.74-28.16v83.16h-15.18V886.22h15.18v26.4C1622.78,897.44,1639.5,884.46,1663.48,884.46Zm-3.08,13.42c-24.42,0-44.66,18.48-44.66,48.4s20.24,48.4,44.66,48.4c25.3,0,44.66-18.26,44.66-48.62C1705.06,915.48,1685.7,897.88,1660.4,897.88Z" transform="translate(0 0)"/><path class="cls-6" d="M1924.62,937.7c0-26.62-13.86-40.26-35.2-40.26-21.78,0-37.18,14.52-37.18,43.78v65.12h-15.18V937.7c0-26.62-14.08-40.26-35.42-40.26-22,0-37.18,14.52-37.18,43.78v65.12h-15.4V886.22h15.4V906.9c7.7-15.18,22.88-22.88,39.82-22.88,20,0,37.18,9.46,44.44,29.48,6.6-19.58,24.2-29.48,43.34-29.48,26.62,0,47.74,16.72,47.74,51.92v70.4h-15.18Z" transform="translate(0 0)"/><path class="cls-6" d="M2025.82,1008.1c-34.1,0-59-23.76-59-61.82,0-38.28,24.42-61.82,59-61.82,35.2,0,56.76,25.08,56.76,55.66a105.31,105.31,0,0,1-.44,12.1h-99.66c1.32,28.16,20.9,42.9,43.34,42.9,20.46,0,34.32-10.78,38.72-26.84h16.28C2075.32,990.94,2056,1008.1,2025.82,1008.1Zm-43.34-68.42H2067c.66-27.94-19.58-42-41.8-42C2003.38,897.66,1984.24,911.74,1982.48,939.68Z" transform="translate(0 0)"/><path class="cls-6" d="M2200.72,937.7c0-26.62-14.52-40.26-36.52-40.26-22.44,0-38.06,14.08-38.06,43.34v65.56h-15.4V886.22h15.4v20.46c7.7-15,23.1-22.66,40.92-22.66,27.28,0,48.84,16.72,48.84,51.92v70.4h-15.18Z" transform="translate(0 0)"/><path class="cls-6" d="M2254.4,899.2h-16.72v-13h16.72V856.08H2270v30.14h33v13h-33v74.58c0,14.74,5.06,19.36,18.92,19.36H2303v13.2h-16.5c-20.9,0-32.12-8.58-32.12-32.56Z" transform="translate(0 0)"/><path class="cls-6" d="M2392.55,899.2h-16.72v-13h16.72v-8.36c0-25.74,12.1-38.06,42.46-38.06V853c-20.46,0-27.06,7.48-27.06,24.86v8.36h27.94v13H2408v107.14h-15.4Z" transform="translate(0 0)"/><path class="cls-6" d="M2512.67,1008.1c-33.88,0-59.62-23.76-59.62-61.82,0-38.28,26.4-61.82,60.06-61.82,33.88,0,60.06,23.54,60.06,61.82C2573.17,984.34,2546.55,1008.1,2512.67,1008.1Zm0-13.42c22.66,0,44.66-15.4,44.66-48.4s-21.56-48.4-44.44-48.4-44.22,15.4-44.22,48.4S2489.79,994.68,2512.67,994.68Z" transform="translate(0 0)"/><path class="cls-6" d="M2616.73,1006.34h-15.4V886.22h15.4v21.34c6.6-14.74,20.46-23.54,41.14-23.54v16.06h-4.18c-20,0-37,9-37,39.16Z" transform="translate(0 0)"/><path class="cls-6" d="M2791.63,884.46c24.2,0,40.7,13,47.52,28.16v-26.4h15.4v120.12h-15.4V979.72c-7,15.4-23.76,28.38-47.74,28.38-32.78,0-57.2-24.42-57.2-62S2758.63,884.46,2791.63,884.46Zm2.86,13.42c-25.3,0-44.66,17.6-44.66,48.18,0,30.36,19.36,48.62,44.66,48.62,24.64,0,44.66-18.48,44.66-48.4S2819.13,897.88,2794.49,897.88Z" transform="translate(0 0)"/><path class="cls-6" d="M2950,843.54h15.4v162.8H2950Z" transform="translate(0 0)"/><path class="cls-6" d="M2996.88,852.12a11.22,11.22,0,0,1,22.44,0,11.22,11.22,0,1,1-22.44,0Zm3.52,34.1h15.4v120.12h-15.4Z" transform="translate(0 0)"/><path class="cls-6" d="M3054.74,899.2H3038v-13h16.72v-8.36c0-25.74,12.1-38.06,42.46-38.06V853c-20.46,0-27.06,7.48-27.06,24.86v8.36h27.94v13h-27.94v107.14h-15.4Z" transform="translate(0 0)"/><path class="cls-6" d="M3174.2,1008.1c-34.11,0-59-23.76-59-61.82,0-38.28,24.43-61.82,59-61.82,35.2,0,56.76,25.08,56.76,55.66a105.31,105.31,0,0,1-.44,12.1h-99.67c1.32,28.16,20.9,42.9,43.35,42.9,20.46,0,34.32-10.78,38.72-26.84h16.28C3223.7,990.94,3204.33,1008.1,3174.2,1008.1Zm-43.35-68.42h84.48c.67-27.94-19.58-42-41.79-42C3151.75,897.66,3132.62,911.74,3130.85,939.68Z" transform="translate(0 0)"/><path class="cls-6" d="M3263.51,899.2h-16.72v-13h16.72V856.08h15.62v30.14h33v13h-33v74.58c0,14.74,5.06,19.36,18.92,19.36h14.08v13.2h-16.5c-20.9,0-32.12-8.58-32.12-32.56Z" transform="translate(0 0)"/><path class="cls-6" d="M3333.91,852.12a11.22,11.22,0,1,1,22.44,0,11.22,11.22,0,1,1-22.44,0Zm3.52,34.1h15.4v120.12h-15.4Z" transform="translate(0 0)"/><path class="cls-6" d="M3563.37,937.7c0-26.62-13.86-40.26-35.2-40.26-21.78,0-37.18,14.52-37.18,43.78v65.12h-15.18V937.7c0-26.62-14.08-40.26-35.42-40.26-22,0-37.18,14.52-37.18,43.78v65.12h-15.4V886.22h15.4V906.9c7.7-15.18,22.88-22.88,39.82-22.88,20,0,37.18,9.46,44.44,29.48,6.6-19.58,24.2-29.48,43.34-29.48,26.62,0,47.74,16.72,47.74,51.92v70.4h-15.18Z" transform="translate(0 0)"/><path class="cls-6" d="M3664.57,1008.1c-34.1,0-59-23.76-59-61.82,0-38.28,24.42-61.82,59-61.82,35.2,0,56.76,25.08,56.76,55.66a105.31,105.31,0,0,1-.44,12.1h-99.66c1.32,28.16,20.9,42.9,43.34,42.9,20.46,0,34.32-10.78,38.72-26.84h16.28C3714.07,990.94,3694.71,1008.1,3664.57,1008.1Zm-43.34-68.42h84.48c.66-27.94-19.58-42-41.8-42C3642.13,897.66,3623,911.74,3621.23,939.68Z" transform="translate(0 0)"/></svg>